# xmcd CD database file
#
# Track frame offsets:
#	150
#	26902
#	41534
#	54277
#	64080
#	80781
#	99816
#	114681
#	126122
#	146841
#	161405
#	175890
#
# Disc length: 2461 seconds
#
# Revision: 2
# Processed by: cddbd v1.5.2PL0 Copyright (c) Steve Scherf et al.
# Submitted via: CDex 1.70beta2
#
DISCID=a1099b0c
DTITLE=Dr John - Early Prescriptions [Disc 2.]
DYEAR=2002
DGENRE=Blues
TTITLE0=Crawfish soiree (bring your own)
TTITLE1=Tipitina
TTITLE2=In the night
TTITLE3=Woman is the root of all evil
TTITLE4=The time had come
TTITLE5=Shoo raa
TTITLE6=Zu zu man
TTITLE7=Baldhead
TTITLE8=Mean cheatin' woman
TTITLE9=Make your own bed well
TTITLE10=A little closer to my home
TTITLE11=Della (part II)
EXTD=YEAR: 2002
EXTT0=
EXTT1=
EXTT2=
EXTT3=
EXTT4=
EXTT5=
EXTT6=
EXTT7=
EXTT8=
EXTT9=
EXTT10=
EXTT11=
PLAYORDER=
